<svg width="136" height="135" viewBox="0 0 136 135" fill="none" xmlns="http://www.w3.org/2000/svg">
<path d="M91.6304 64.2041L100.2 72.7734L89.521 83.4521C88.73 84.2432 88.73 85.0342 89.521 85.8252L91.7622 88.0664C92.5532 88.8574 93.3442 88.8574 94.1353 88.0664L104.814 77.3877L121.293 93.8672L110.615 104.546C109.824 105.337 109.824 106.084 110.615 106.787L112.856 109.16C113.647 109.951 114.438 109.951 115.229 109.16L125.908 98.4814L134.213 106.787C135.004 107.578 135.4 108.545 135.4 109.688C135.4 110.83 135.004 111.841 134.213 112.72L113.12 133.813C112.241 134.604 111.23 135 110.087 135C108.945 135 107.978 134.604 107.187 133.813L64.604 91.2305L39.8188 116.016C38.4126 117.422 36.6987 118.125 34.6772 118.125C32.6558 118.125 30.9419 117.422 29.5356 116.016L19.5161 105.864C18.1099 104.458 17.4067 102.766 17.4067 100.789C17.4067 98.811 18.1099 97.1191 19.5161 95.7129L44.3013 70.9277L1.58643 28.2129C0.79541 27.4219 0.399902 26.4551 0.399902 25.3125C0.399902 24.1699 0.79541 23.2031 1.58643 22.4121L22.6802 1.18652C23.5591 0.395508 24.5698 0 25.7124 0C26.855 0 27.8218 0.395508 28.6128 1.18652L36.9185 9.49219L26.2397 20.1709C25.4487 20.9619 25.4487 21.7529 26.2397 22.5439L28.481 24.7852C29.272 25.5762 30.063 25.5762 30.854 24.7852L41.5327 14.1064L58.0122 30.5859L47.3335 41.2646C46.5425 42.0557 46.5425 42.8467 47.3335 43.6377L49.5747 45.8789C50.3657 46.6699 51.1567 46.6699 51.9478 45.8789L62.6265 35.2002L71.1958 43.9014L112.988 2.10938C114.394 0.703125 116.086 0 118.063 0C120.041 0 121.733 0.703125 123.139 2.10938L133.291 12.2607C134.697 13.667 135.4 15.3589 135.4 17.3364C135.4 19.314 134.697 21.0059 133.291 22.4121L91.6304 64.2041ZM9.10107 106.523C9.27686 107.227 9.58447 107.798 10.0239 108.237L27.1626 125.376C27.6021 125.815 28.1733 126.123 28.8765 126.299C28.437 127.178 28.0854 127.705 27.8218 127.881L4.61865 135C2.50928 135 1.27881 134.824 0.927246 134.473C0.575684 134.121 0.399902 132.891 0.399902 130.781L7.51904 107.578C7.69482 107.402 8.22217 107.051 9.10107 106.523Z" fill="white"/>
</svg>
