<svg width="136" height="167" viewBox="0 0 136 167" fill="none" xmlns="http://www.w3.org/2000/svg">
<path d="M109.848 0H8.93726C6.70701 0 4.5681 0.877095 2.99107 2.43834C1.41404 3.99958 0.528076 6.11707 0.528076 8.325V141.525C0.528076 143.733 1.41404 145.85 2.99107 147.412C4.5681 148.973 6.70701 149.85 8.93726 149.85H17.3465V158.175C17.3465 160.383 18.2324 162.5 19.8094 164.062C21.3865 165.623 23.5254 166.5 25.7556 166.5C27.9859 166.5 30.1248 165.623 31.7018 164.062C33.2789 162.5 34.1648 160.383 34.1648 158.175V149.85H109.848C116.538 149.85 122.955 147.219 127.686 142.535C132.417 137.851 135.075 131.499 135.075 124.875V24.975C135.075 18.3512 132.417 11.9987 127.686 7.31501C122.955 2.63129 116.538 0 109.848 0ZM84.62 133.2H17.3465V16.65H84.62V133.2ZM118.257 124.875C118.257 127.083 117.371 129.2 115.794 130.762C114.217 132.323 112.078 133.2 109.848 133.2H101.438V16.65H109.848C112.078 16.65 114.217 17.5271 115.794 19.0883C117.371 20.6496 118.257 22.7671 118.257 24.975V124.875Z" fill="white"/>
</svg>
