<svg width="127" height="30" viewBox="0 0 127 30" fill="none" xmlns="http://www.w3.org/2000/svg">
<path d="M20.1615 19.5777C23.6275 17.6269 26.2553 16.1406 26.4817 16.0252C27.206 15.6301 27.9544 14.5849 26.4817 13.7732C26.0062 13.5179 23.4462 12.0777 20.1615 10.2207L15.6084 14.9338L20.1613 19.5777H20.1615Z" fill="#FFD900"/>
<path d="M15.6086 14.9316L1.11035 29.9085C1.45042 29.9548 1.83465 29.8622 2.28783 29.607C3.23883 29.0736 13.3199 23.4305 20.162 19.5766L15.6086 14.9316Z" fill="#F43249"/>
<path d="M15.6085 14.9332L20.1614 10.2431C20.1614 10.2431 3.30741 0.815703 2.28744 0.259431C1.90371 0.0255332 1.47311 -0.0436193 1.08789 0.0255332L15.6085 14.933V14.9332Z" fill="#00EE76"/>
<path d="M15.6085 14.9328L1.08768 0.0253906C0.49832 0.164967 0.000244141 0.698611 0.000244141 1.78954V28.1448C0.000244141 29.144 0.385707 29.8634 1.11 29.9326L15.6083 14.9326L15.6085 14.9328Z" fill="#00D3FF"/>
<path d="M62.8881 11.9604C60.2831 11.9604 58.1308 14.0266 58.1308 16.8595C58.1308 19.6694 60.2605 21.7587 62.8883 21.7587C65.5159 21.7587 67.6454 19.6925 67.6454 16.8595C67.6454 14.0266 65.5159 11.9604 62.8881 11.9604ZM62.8881 19.8092C61.4606 19.8092 60.2154 18.5782 60.2154 16.8377C60.2154 15.073 61.4616 13.8661 62.8881 13.8661C64.3146 13.8661 65.5608 15.073 65.5608 16.8377C65.5608 18.5782 64.3146 19.8092 62.8881 19.8092ZM52.5354 11.9604C49.9076 11.9604 47.7779 14.0266 47.7779 16.8595C47.7779 19.6694 49.9076 21.7587 52.5354 21.7587C55.1629 21.7587 57.2927 19.6925 57.2927 16.8595C57.2927 14.0266 55.1629 11.9604 52.5351 11.9604H52.5354ZM52.5354 19.8092C51.1076 19.8092 49.8627 18.5782 49.8627 16.8377C49.8627 15.073 51.1089 13.8661 52.5354 13.8661C53.9629 13.8661 55.2081 15.073 55.2081 16.8377C55.2081 18.5782 53.9842 19.8092 52.5354 19.8092ZM40.2343 13.4698V15.536H45.0365C44.9 16.6968 44.5161 17.5559 43.9493 18.1368C43.2473 18.8563 42.1599 19.6462 40.2343 19.6462C37.2662 19.6462 34.9789 17.1852 34.9789 14.1433C34.9789 11.1013 37.2674 8.59376 40.2343 8.59376C41.8421 8.59376 42.9983 9.2441 43.859 10.0803L45.2855 8.6169C44.0845 7.43317 42.4766 6.52783 40.2343 6.52783C36.1787 6.52783 32.7805 9.94046 32.7805 14.097C32.7805 18.2538 36.1787 21.6664 40.2343 21.6664C42.4315 21.6664 44.0631 20.9238 45.3768 19.5298C46.7133 18.16 47.121 16.2323 47.121 14.6769C47.121 14.1895 47.0761 13.7482 47.0074 13.3765L40.2343 13.4698ZM90.571 15.0717C90.1855 13.9803 88.9629 11.9604 86.5154 11.9604C84.0682 11.9604 82.0523 13.9343 82.0523 16.8595C82.0523 19.5989 84.0682 21.7587 86.7421 21.7587C88.9168 21.7587 90.163 20.3888 90.6836 19.5989L89.0758 18.4846C88.5316 19.2977 87.807 19.8311 86.7421 19.8311C85.6773 19.8311 84.9302 19.3437 84.4537 18.3448L90.7739 15.6285L90.571 15.0717ZM84.1369 16.721C84.092 14.8396 85.5647 13.8649 86.6057 13.8649C87.4441 13.8649 88.1238 14.2828 88.3726 14.91L84.1369 16.721ZM78.9944 21.434H81.079V7.08436H78.9944V21.434ZM75.5972 13.0518H75.5295C75.054 12.4709 74.1707 11.9604 73.0371 11.9604C70.6584 11.9604 68.5063 14.1201 68.5063 16.8595C68.5063 19.5989 70.6809 21.7358 73.0371 21.7358C74.1695 21.7358 75.053 21.225 75.5295 20.621H75.5972V21.3176C75.5972 23.1989 74.6224 24.1966 73.0597 24.1966C71.7909 24.1966 70.9977 23.2449 70.6809 22.455L68.8692 23.245C69.3896 24.5454 70.7722 26.1473 73.0597 26.1473C75.5059 26.1473 77.5679 24.6611 77.5679 21.0623V12.2619H75.5972V13.0518ZM73.2184 19.8092C71.7909 19.8092 70.5909 18.5782 70.5909 16.8608C70.5909 15.1434 71.7919 13.889 73.2184 13.889C74.6236 13.889 75.756 15.1434 75.756 16.8608C75.755 18.555 74.6224 19.8092 73.2184 19.8092ZM100.289 7.08461H95.3057V21.434H97.3903V16.0002H100.289C102.6 16.0002 104.865 14.2816 104.865 11.5424C104.865 8.803 102.6 7.08436 100.289 7.08436V7.08461ZM100.357 14.0047H97.4116V9.08114H100.357C101.897 9.08114 102.803 10.4047 102.803 11.5422C102.782 12.6567 101.898 14.0047 100.357 14.0047ZM113.18 11.9372C111.685 11.9372 110.121 12.6107 109.487 14.1433L111.323 14.9332C111.731 14.1433 112.455 13.888 113.226 13.888C114.313 13.888 115.401 14.5612 115.423 15.745V15.8848C115.038 15.6527 114.246 15.327 113.249 15.327C111.255 15.327 109.238 16.4647 109.238 18.555C109.238 20.4824 110.87 21.7127 112.682 21.7127C114.087 21.7127 114.856 21.0623 115.332 20.2966H115.4V21.4111H117.415V15.9077C117.393 13.3772 115.558 11.937 113.18 11.937V11.9372ZM112.931 19.7861C112.251 19.7861 111.299 19.4372 111.299 18.5792C111.299 17.4646 112.477 17.0466 113.496 17.0466C114.402 17.0466 114.833 17.2556 115.4 17.534C115.241 18.8576 114.131 19.7861 112.931 19.7861ZM124.688 12.2632L122.309 18.4625H122.241L119.773 12.2629H117.53L121.245 20.9466L119.138 25.7998H121.313L126.998 12.2629H124.687L124.688 12.2632ZM106.021 21.434H108.106V7.08436H106.021V21.434Z" fill="#808285"/>
</svg>
