<svg width="985" height="1376" viewBox="0 0 985 1376" fill="none" xmlns="http://www.w3.org/2000/svg">
<path d="M-38.5566 436.103L-87.1132 352L-38.5566 267.897H58.5567L107.113 352L58.5567 436.103H-38.5566Z" stroke="#7FC7C6" stroke-width="5"/>
<path d="M-38.5566 604.103L-87.1132 520L-38.5566 435.897H58.5567L107.113 520L58.5567 604.103H-38.5566Z" stroke="#7FC7C6" stroke-width="5"/>
<path d="M58.5566 99.8975L107.113 184L58.5566 268.103H-38.5566L-87.1132 184L-38.5566 99.8975L58.5566 99.8975Z" stroke="#7FC7C6" stroke-width="5"/>
<path d="M204.557 183.897L253.113 268L204.557 352.103H107.443L58.8868 268L107.443 183.897L204.557 183.897Z" stroke="#7FC7C6" stroke-width="5"/>
<path d="M495.557 519.897L544.113 604L495.557 688.103H398.443L349.887 604L398.443 519.897H495.557Z" stroke="#7FC7C6" stroke-width="5"/>
<path d="M203.803 351.897L252.117 436L203.803 520.103H107.197L58.8831 436L107.197 351.897H203.803Z" stroke="#7FC7C6" stroke-width="5"/>
<path d="M350.557 267.897L399.113 352L350.557 436.103H253.443L204.887 352L253.443 267.897H350.557Z" stroke="#7FC7C6" stroke-width="5"/>
<path d="M495.557 351.897L544.113 436L495.557 520.103H398.443L349.887 436L398.443 351.897H495.557Z" stroke="#7FC7C6" stroke-width="5"/>
<path d="M641.557 435.897L690.113 520L641.557 604.103H544.443L495.887 520L544.443 435.897H641.557Z" stroke="#7FC7C6" stroke-width="5"/>
<path d="M349.557 435.897L398.113 520L349.557 604.103H252.443L203.887 520L252.443 435.897H349.557Z" stroke="#7FC7C6" stroke-width="5"/>
<path d="M203.803 519.897L252.117 604L203.803 688.103H107.197L58.8831 604L107.197 519.897H203.803Z" stroke="#7FC7C6" stroke-width="5"/>
<path d="M787.557 519.897L836.113 604L787.557 688.103H690.443L641.887 604L690.443 519.897H787.557Z" stroke="#7FC7C6" stroke-width="5"/>
<path d="M107.443 855.897L58.8868 940L107.443 1024.1H204.557L253.113 940L204.557 855.897H107.443Z" stroke="#7FC7C6" stroke-width="5"/>
<path d="M-37.803 771.897L-86.1169 856L-37.803 940.103H58.803L107.117 856L58.803 771.897H-37.803Z" stroke="#7FC7C6" stroke-width="5"/>
<path d="M107.443 687.897L58.8868 772L107.443 856.103H204.557L253.113 772L204.557 687.897H107.443Z" stroke="#7FC7C6" stroke-width="5"/>
<path d="M-37.803 603.897L-86.1168 688L-37.803 772.103H58.8031L107.117 688L58.8031 603.897H-37.803Z" stroke="#7FC7C6" stroke-width="5"/>
<path d="M204.557 1192.1L253.113 1108L204.557 1023.9H107.443L58.8868 1108L107.443 1192.1H204.557Z" stroke="#7FC7C6" stroke-width="5"/>
<path d="M350.557 1108.1L399.113 1024L350.557 939.897H253.443L204.887 1024L253.443 1108.1H350.557Z" stroke="#7FC7C6" stroke-width="5"/>
<path d="M641.557 772.103L690.113 688L641.557 603.897H544.443L495.887 688L544.443 772.103H641.557Z" stroke="#7FC7C6" stroke-width="5"/>
<path d="M349.803 940.103L398.117 856L349.803 771.897H253.197L204.883 856L253.197 940.103H349.803Z" stroke="#7FC7C6" stroke-width="5"/>
<path d="M58.5566 1276.1L107.113 1192L58.5566 1107.9H-38.5566L-87.1132 1192L-38.5566 1276.1H58.5566Z" stroke="#7FC7C6" stroke-width="5"/>
<path d="M496.556 1024.1L545.113 940L496.556 855.897H399.443L350.887 940L399.443 1024.1H496.556Z" stroke="#7FC7C6" stroke-width="5"/>
<path d="M641.557 940.103L690.113 856L641.557 771.897H544.443L495.887 856L544.443 940.103H641.557Z" stroke="#7FC7C6" stroke-width="5"/>
<path d="M787.557 856.103L836.113 772L787.557 687.897H690.443L641.887 772L690.443 856.103H787.557Z" stroke="#7FC7C6" stroke-width="5"/>
<path d="M58.803 1108.1L107.117 1024L58.803 939.897H-37.803L-86.1169 1024L-37.803 1108.1H58.803Z" stroke="#7FC7C6" stroke-width="5"/>
<path d="M495.557 856.103L544.113 772L495.557 687.897H398.443L349.887 772L398.443 856.103H495.557Z" stroke="#7FC7C6" stroke-width="5"/>
<path d="M349.803 772.103L398.117 688L349.803 603.897H253.197L204.883 688L253.197 772.103H349.803Z" stroke="#7FC7C6" stroke-width="5"/>
<path d="M933.557 772.103L982.113 688L933.557 603.897H836.443L787.887 688L836.443 772.103H933.557Z" stroke="#7FC7C6" stroke-width="5"/>
</svg>
