<svg width="135" height="135" viewBox="0 0 135 135" fill="none" xmlns="http://www.w3.org/2000/svg">
<path fill-rule="evenodd" clip-rule="evenodd" d="M42.1875 84.375H126.562C128.8 84.375 130.946 85.2639 132.529 86.8463C134.111 88.4286 135 90.5747 135 92.8125C135 95.0503 134.111 97.1964 132.529 98.7787C130.946 100.361 128.8 101.25 126.562 101.25H42.1875C39.9497 101.25 37.8036 100.361 36.2213 98.7787C34.6389 97.1964 33.75 95.0503 33.75 92.8125C33.75 90.5747 34.6389 88.4286 36.2213 86.8463C37.8036 85.2639 39.9497 84.375 42.1875 84.375V84.375ZM42.1875 118.125H126.562C128.8 118.125 130.946 119.014 132.529 120.596C134.111 122.179 135 124.325 135 126.562C135 128.8 134.111 130.946 132.529 132.529C130.946 134.111 128.8 135 126.562 135H42.1875C39.9497 135 37.8036 134.111 36.2213 132.529C34.6389 130.946 33.75 128.8 33.75 126.562C33.75 124.325 34.6389 122.179 36.2213 120.596C37.8036 119.014 39.9497 118.125 42.1875 118.125V118.125ZM92.8125 50.625H126.562C128.8 50.625 130.946 51.5139 132.529 53.0963C134.111 54.6786 135 56.8247 135 59.0625C135 61.3003 134.111 63.4464 132.529 65.0287C130.946 66.6111 128.8 67.5 126.562 67.5H92.8125C90.5747 67.5 88.4286 66.6111 86.8463 65.0287C85.2639 63.4464 84.375 61.3003 84.375 59.0625C84.375 56.8247 85.2639 54.6786 86.8463 53.0963C88.4286 51.5139 90.5747 50.625 92.8125 50.625V50.625ZM31.5816 66.7744L0 35.2012L11.9306 23.2622L31.5816 42.9131L74.4862 0L86.4253 11.9306L31.5816 66.7744V66.7744Z" fill="white"/>
</svg>
