<svg width="81" height="85" viewBox="0 0 81 85" fill="none" xmlns="http://www.w3.org/2000/svg">
<path d="M0 61.73C7.1374 68.7406 16.922 73.0646 27.7169 73.0646C49.563 73.0646 67.2728 55.3548 67.2728 33.5087C67.2728 19.3903 59.8761 6.99941 48.7466 0C67.2938 4.76766 81 21.6015 81 41.6366C81 65.3781 61.7538 84.6243 38.0123 84.6243C21.5292 84.6243 7.2129 75.3473 0 61.73Z" fill="#F2CD01"/>
<path d="M12.1449 26.952C9.68769 26.952 7.69617 28.9435 7.69617 31.4007V55.3163C7.69617 57.7742 9.68877 59.7668 12.1467 59.7668H14.2599V42.7061L18.6356 53.2084H20.8233L25.199 42.7061V59.7686H27.3123C29.7702 59.7686 31.7628 57.776 31.7628 55.3181V26.952H28.1384C26.3586 26.952 24.7536 28.0223 24.0687 29.6649L19.7295 40.0806L14.2599 26.952H12.1449Z" fill="white"/>
<path d="M39.5388 16.952C36.4245 16.952 33.8994 19.4767 33.8994 22.5913V59.866H36.7453C39.9141 59.866 42.4829 57.2972 42.4829 54.1284V42.6991H52.1374C54.7062 42.6991 56.788 40.6165 56.788 38.0485V16.952H39.5388ZM48.2053 34.1156H42.4829V26.0339C42.4829 25.7583 42.7065 25.5347 42.9814 25.5347H48.2053V34.1156Z" fill="white"/>
</svg>
