<svg width="900" height="900" viewBox="0 0 900 900" fill="none" xmlns="http://www.w3.org/2000/svg">
<path d="M179.69 809.767C247.596 860.788 328.554 891.549 413.207 898.493C497.859 905.438 582.749 888.283 658.062 849.012C733.375 809.74 796.036 749.956 838.8 676.571C881.565 603.185 902.688 519.195 899.726 434.31C896.765 349.424 869.84 267.11 822.065 196.884C774.289 126.657 707.614 71.3852 629.748 37.4581C551.881 3.53101 466.002 -7.66604 382.04 5.16141C298.077 17.9889 219.459 54.317 155.274 109.946L200.933 162.627C255.174 115.616 321.613 84.9156 392.568 74.0753C463.523 63.2351 536.098 72.6975 601.901 101.369C667.705 130.04 724.051 176.749 764.425 236.096C804.799 295.443 827.552 365.005 830.055 436.74C832.558 508.475 814.708 579.454 778.568 641.471C742.428 703.487 689.475 754.01 625.829 787.197C562.184 820.385 490.445 834.882 418.907 829.013C347.369 823.144 278.952 797.149 221.566 754.033L179.69 809.767Z" fill="url(#paint0_linear)"/>
<rect x="157" y="112" width="120" height="55" fill="white"/>
<rect x="326" y="808" width="146" height="55" transform="rotate(-180 326 808)" fill="white"/>
<rect x="154" y="110" width="126" height="2" fill="#DBDBDB"/>
<rect x="332" y="810" width="153" height="2" transform="rotate(-180 332 810)" fill="#DBDBDB"/>
<defs>
<linearGradient id="paint0_linear" x1="450" y1="0" x2="450" y2="900" gradientUnits="userSpaceOnUse">
<stop stop-color="#372DA6"/>
<stop offset="1" stop-color="#D93FEB"/>
</linearGradient>
</defs>
</svg>
