<svg width="20" height="14" viewBox="0 0 20 14" fill="none" xmlns="http://www.w3.org/2000/svg">
<path d="M3.06492 0.6209L10.0093 8.87062L16.9537 0.6209C17.1194 0.42405 17.3162 0.267902 17.5327 0.161368C17.7492 0.0548338 17.9812 2.07414e-09 18.2155 0C18.4499 -2.07414e-09 18.6819 0.0548338 18.8984 0.161368C19.1149 0.267902 19.3116 0.42405 19.4773 0.6209C19.643 0.817749 19.7745 1.05144 19.8642 1.30864C19.9538 1.56583 20 1.8415 20 2.11988C20 2.39827 19.9538 2.67393 19.8642 2.93113C19.7745 3.18832 19.643 3.42202 19.4773 3.61886L11.2622 13.3782C11.0966 13.5753 10.8999 13.7317 10.6834 13.8384C10.4669 13.9451 10.2348 14 10.0004 14C9.76597 14 9.53387 13.9451 9.31735 13.8384C9.10083 13.7317 8.90415 13.5753 8.73857 13.3782L0.523414 3.61886C0.357494 3.42216 0.225859 3.18851 0.136044 2.9313C0.0462299 2.67408 0 2.39835 0 2.11988C0 1.84141 0.0462299 1.56568 0.136044 1.30847C0.225859 1.05125 0.357494 0.817604 0.523414 0.6209C1.22143 -0.187063 2.3669 -0.208325 3.06492 0.6209V0.6209Z" fill="black"/>
</svg>
