<svg width="220" height="3150" viewBox="0 0 220 3150" fill="none" xmlns="http://www.w3.org/2000/svg">
<path d="M220 1032.64L1.52588e-05 463.108V1423.11L220 1032.64Z" fill="url(#paint0_linear)"/>
<path d="M220 2142.64L1.52588e-05 1573.11V2533.11L220 2142.64Z" fill="url(#paint1_linear)"/>
<path d="M0 2580.47L220 3150L220 2190L0 2580.47Z" fill="url(#paint2_linear)"/>
<path d="M0 1500.47L220 2070L220 1110L0 1500.47Z" fill="url(#paint3_linear)"/>
<path d="M0 390.472L220 960L220 0L0 390.472Z" fill="url(#paint4_linear)"/>
<defs>
<linearGradient id="paint0_linear" x1="218.007" y1="938.695" x2="-1.25302" y2="938.695" gradientUnits="userSpaceOnUse">
<stop stop-color="#298181"/>
<stop offset="1" stop-color="#7FC7C6"/>
</linearGradient>
<linearGradient id="paint1_linear" x1="218.007" y1="2048.69" x2="-1.25301" y2="2048.69" gradientUnits="userSpaceOnUse">
<stop stop-color="#298181"/>
<stop offset="1" stop-color="#7FC7C6"/>
</linearGradient>
<linearGradient id="paint2_linear" x1="1.99276" y1="2674.41" x2="221.253" y2="2674.41" gradientUnits="userSpaceOnUse">
<stop stop-color="#7FC7C6"/>
<stop offset="1" stop-color="#298181"/>
</linearGradient>
<linearGradient id="paint3_linear" x1="1.99276" y1="1594.41" x2="221.253" y2="1594.41" gradientUnits="userSpaceOnUse">
<stop stop-color="#7FC7C6"/>
<stop offset="1" stop-color="#298181"/>
</linearGradient>
<linearGradient id="paint4_linear" x1="1.99276" y1="484.413" x2="221.253" y2="484.413" gradientUnits="userSpaceOnUse">
<stop stop-color="#7FC7C6"/>
<stop offset="1" stop-color="#298181"/>
</linearGradient>
</defs>
</svg>
