<svg width="151" height="135" viewBox="0 0 151 135" fill="none" xmlns="http://www.w3.org/2000/svg">
<path d="M107.414 99.2479C111.398 99.2479 114.529 102.394 114.529 106.398C114.529 110.403 111.398 113.549 107.414 113.549C103.43 113.549 100.3 110.331 100.3 106.398C100.3 102.466 103.43 99.2479 107.414 99.2479ZM107.414 77.7966C126.836 77.7966 143.413 89.6663 150.1 106.398C143.413 123.13 126.836 135 107.414 135C87.9922 135 71.4159 123.13 64.7285 106.398C71.4159 89.6663 87.9922 77.7966 107.414 77.7966ZM107.414 88.5222C102.697 88.5223 98.1733 90.4056 94.8378 93.758C91.5024 97.1104 89.6285 101.657 89.6285 106.398C89.6285 111.139 91.5024 115.686 94.8378 119.039C98.1733 122.391 102.697 124.274 107.414 124.274C112.131 124.274 116.655 122.391 119.991 119.039C123.326 115.686 125.2 111.139 125.2 106.398C125.2 101.657 123.326 97.1104 119.991 93.758C116.655 90.4056 112.131 88.5223 107.414 88.5222ZM114.529 0H14.9285C7.10281 0 0.699951 6.43538 0.699951 14.3008V100.106C0.699951 107.971 7.10281 114.407 14.9285 114.407H53.4879C52.3497 112.119 51.3537 109.688 50.4999 107.256C51.3537 104.825 52.3497 102.394 53.4879 100.106H14.9285V71.5042H57.6142V92.741C61.5271 86.5916 66.3648 81.3003 71.8428 76.9386V71.5042H80.0242C88.2768 66.928 97.5965 64.3538 107.414 64.3538C114.955 64.3538 122.141 65.8554 128.757 68.5726V14.3008C128.757 6.43538 122.354 0 114.529 0ZM57.6142 57.2034H14.9285V28.6017H57.6142V57.2034ZM114.529 57.2034H71.8428V28.6017H114.529V57.2034Z" fill="white"/>
</svg>
